<svg width="383" height="383" xmlns="http://www.w3.org/2000/svg" xmlns:xlink="http://www.w3.org/1999/xlink"><defs><path d="M0 0h383v383H0V0z" id="a"/></defs><g fill="none" xlink:href="#a" fill-rule="evenodd"><path d="M83.326 0h216.348c28.974 0 39.48 3.017 50.073 8.682 10.593 5.665 18.906 13.978 24.571 24.57 5.665 10.593 8.682 21.1 8.682 50.074v216.348c0 28.974-3.017 39.48-8.682 50.073-5.665 10.593-13.978 18.906-24.57 24.571-10.593 5.665-21.1 8.682-50.074 8.682H83.326c-28.974 0-39.48-3.017-50.073-8.682-10.593-5.665-18.906-13.978-24.571-24.57C3.017 339.154 0 328.647 0 299.673V83.326c0-28.974 3.017-39.48 8.682-50.073C14.347 22.66 22.66 14.347 33.252 8.682 43.846 3.017 54.353 0 83.327 0z" fill="#000"/><path d="M259.064 112.533c1.002 3.424 1.967 7.145 2.924 11.187 3.32 13.944 6.64 31.54 6.64 66.4 0 34.86-2.988 52.456-6.308 66.4-10.292 43.492-21.912 49.8-69.72 49.8-34.954 0-50.564-3.372-60.453-22.184l19.696-26.631c4.612 17.203 13.212 24.247 40.757 24.247 32.204 0 38.512-9.628 42.828-33.864 1.66-9.628 4.98-24.9 4.98-57.768 0-23.536-1.702-38.05-3.279-47.928z" fill="#3B3B3B" fill-rule="nonzero"/><path d="M192.6 73.92c25.202 0 40.255 1.753 50.364 9.781l-17.443 23.622c-6.08-6.136-15.871-8.835-32.921-8.835-32.204 0-38.512 9.628-42.828 33.864-1.66 9.628-4.98 24.9-4.98 57.768 0 10.005.308 18.38.782 25.462l-24.42 33.068c-2.563-12.885-4.582-29.875-4.582-58.53l.001-1.04c.065-34.172 3.352-51.555 6.639-65.36 10.292-43.492 21.58-49.8 69.388-49.8z" fill="#FFF"/><path d="M82.37 316.465l193.523-262a5 5 0 0 1 4.022-2.029h18.649a5 5 0 0 1 4.02 7.974l-193.82 262a5 5 0 0 1-4.019 2.026H86.391a5 5 0 0 1-4.021-7.97z" fill="#FFF" fill-rule="nonzero"/></g></svg>